# xmcd CD database file
#
# Track frame offsets:
#	150
#	20280
#	34857
#	54502
#	73125
#	92137
#	108475
#	133869
#	151907
#	178114
#	195366
#
# Disc length: 2834 seconds
#
# Revision: 1
# Processed by: cddbd v1.5.2PL0 Copyright (c) Steve Scherf et al.
# Submitted via: CDex 1.51
#
DISCID=920b100b
DTITLE=Hokie Joint - The Way it Goes... Sometimes
DYEAR=2008
DGENRE=Blues
TTITLE0=The Way it Goes... Sometimes
TTITLE1=Mrs Jones
TTITLE2=Franklin
TTITLE3=Chocolate Cake
TTITLE4=Back Where we are Going
TTITLE5=Tom Rushen Blues
TTITLE6=The Crying Song
TTITLE7=Ghost
TTITLE8=Clarksdale Mill
TTITLE9=Chain Me
TTITLE10=Lost in the City
EXTD=YEAR: 2008
EXTT0=
EXTT1=
EXTT2=
EXTT3=
EXTT4=
EXTT5=
EXTT6=
EXTT7=
EXTT8=
EXTT9=
EXTT10=
PLAYORDER=
